<?xml version="1.0" encoding="utf-8"?>
<!-- Generator: Adobe Illustrator 19.2.1, SVG Export Plug-In . SVG Version: 6.00 Build 0)  -->
<svg version="1.1" id="Layer_1" xmlns="http://www.w3.org/2000/svg" xmlns:xlink="http://www.w3.org/1999/xlink" x="0px" y="0px"
	 viewBox="0 0 230 70" style="enable-background:new 0 0 230 70;" xml:space="preserve">
<style type="text/css">
	.st0{fill:#FBB03B;}
	.st1{fill:#67C9EC;}
	.st2{fill:#8B467B;}
	.st3{fill:#00719C;}
</style>
<g>
	<path class="st0" d="M28.8-0.1c0,0-3.1,4.6,0.3,6.8V2.5l0.8,4.1C29.9,6.5,32.7,4.3,28.8-0.1z"/>
	<path class="st0" d="M9.4,52.8c0,0,5.4-1.1,4.6-5l-3,2.9l2.3-3.4C13.4,47.3,9.8,46.9,9.4,52.8z"/>
	<path class="st0" d="M51.8,51c0,0-0.5-5.1-4.2-4.7l2.4,3l-3-2.5C47.1,46.8,46.3,50.1,51.8,51z"/>
	<path class="st0" d="M2.8,21c0,0,6.6,9.6,13.5,4.7l-8.1-3.3l8.6,1.6C16.8,24,14.6,16.7,2.8,21z"/>
	<path class="st0" d="M55.9,17.6c0,0-10.7-2.5-12.4,5.3l7.8-2.9l-7,4.3C44.2,24.4,50.3,28.2,55.9,17.6z"/>
</g>
<g>
	<path class="st1" d="M60.3,29.5c0,0-4.1-3.4-6.5-0.4l4,0.5l-4,0.3C53.7,29.8,55.6,32.8,60.3,29.5z"/>
	<path class="st1" d="M4.6,42.5c0,0,10.8,2.2,12.3-5.7l-7.7,3.1l6.9-4.5C16.1,35.4,9.8,31.9,4.6,42.5z"/>
	<path class="st1" d="M39.9,2.8c0,0-9.7,6.3-5,13.3l3.5-8l-1.8,8.5C36.6,16.6,43.9,14.6,39.9,2.8z"/>
</g>
<g>
	<path class="st1" d="M8,9.2c0,0,0.3,5.5,4.3,5.3l-2.5-3.3l3.1,2.8C12.9,13.9,13.9,10.4,8,9.2z"/>
	<path class="st1" d="M42.5,55.8c0,0,2.2-10.9-5.7-12.4l3.1,7.8l-4.6-7C35.3,44.2,31.7,50.5,42.5,55.8z"/>
</g>
<g>
	<g>
		<path class="st2" d="M5.9,70.1c4.5-3.9,11.2-6.8,18.9-7.9c-0.4-1-0.9-2.1-1.3-3C15.2,61.1,8.8,65.4,5.9,70.1z"/>
		<path class="st2" d="M32.9,58.4c0.7,1.1,1.6,2.4,2.3,3.4c9,0.4,15.5,2.3,20.1,6C51.8,62.5,44.5,58.6,32.9,58.4z"/>
	</g>
	<g>
		<path class="st2" d="M17,4c0,0-2.1,12.1,6.7,13.5L20,9l5.3,7.5C25.3,16.6,29.1,9.5,17,4z"/>
		<path class="st2" d="M51,8.1c0,0-5.5,0.6-5,4.6l3.2-2.7l-2.6,3.2C46.7,13.3,50.2,14,51,8.1z"/>
		<path class="st2" d="M0,30.8c0,0,4.1,3.7,6.8,0.7l-4.1-0.6l4.1-0.2C6.8,30.6,5,27.5,0,30.8z"/>
		<path class="st2" d="M57.4,39.6c0,0-6.1-9.8-13.2-5.3l7.9,3.7l-8.4-2C43.7,36,45.4,43.3,57.4,39.6z"/>
		<path class="st2" d="M39.3,28.4c-7.7,7.1-12,8.3-13.7,8.5c0.2-5.8,1.7-12.4,5.4-19.7c0,0-17.1,19.8-4.6,44.8
			c1-0.1,2.2-0.2,3.5-0.2c-1.4-3.2-1.5-5.4-1.5-5.4c0.9,1.7,2.2,3.6,3.3,5.3c0.6,0,1.3,0,2,0c-2.3-2.8-7.2-9.9-8-20.4
			C27.9,40.4,33.9,37,39.3,28.4z M31.7,36.3c-2.3,1.9-3,3.1-6.1,4.4c0-0.7-0.1-1.5-0.1-2.3C26.6,38.3,29.6,37.7,31.7,36.3z"/>
	</g>
</g>
<g>
	<g>
		<path class="st3" d="M79.7,36.4l-6.8,7l7.4,7.5V51h-3l-6.6-6.7V51h-2.4V36.3h2.4v6.4l6-6.4L79.7,36.4L79.7,36.4z"/>
		<path class="st3" d="M82.8,36.3V51h-2.2V36.3H82.8z"/>
		<path class="st3" d="M87.3,37.6c0,1.8-2.7,1.8-2.7,0C84.6,35.8,87.3,35.8,87.3,37.6z M84.8,40.6V51H87V40.6H84.8z"/>
		<path class="st3" d="M96.8,51v-5.6c0-1.8-1-3-2.8-3c-1.7,0-2.9,1.4-2.9,3.1v5.4h-2.2V40.6h2l0.1,1.5c1-1.1,2.2-1.7,3.5-1.7
			c2.5,0,4.5,1.8,4.5,5V51H96.8z"/>
		<path class="st3" d="M103.1,37.6c0,1.8-2.7,1.8-2.7,0S103.1,35.8,103.1,37.6z M100.7,40.6V51h2.2V40.6H100.7z"/>
		<path class="st3" d="M113.7,39.7l1.6,1.2l-1.2,1.5c0.9,1,1.3,1.9,1.3,3.2c0,1.8-0.9,3.3-2.8,4c2.1,0.7,2.7,2.2,2.7,3.4
			c0,2.8-2.8,4.2-5.6,4.2c-3.4,0-5.6-1.7-5.5-4.6h2.2c-0.1,1.6,1.6,2.5,3.3,2.5c1.6,0,3.3-0.7,3.3-2.1c0-1.5-1.3-2.3-3.3-2.3
			c-3.4,0-5.6-1.9-5.6-5.2c0-3.5,2.8-5.2,5.6-5.2c0.9,0,2.1,0.2,2.8,0.7L113.7,39.7z M106.3,45.6c0,2.1,1.6,3.2,3.4,3.2
			c1.9,0,3.4-1.3,3.4-3.2c0-2-1.6-3.2-3.4-3.2C108,42.4,106.3,43.4,106.3,45.6z M113.1,36.2c0,1.8-1.4,2.8-3.1,2.8s-3.3-1-3.1-2.8
			h1.8c0,0.8,0.5,1.3,1.3,1.3s1.3-0.5,1.3-1.3H113.1z"/>
		<path class="st3" d="M119.1,37.6c0,1.8-2.7,1.8-2.7,0S119.1,35.8,119.1,37.6z M116.7,40.6V51h2.2V40.6H116.7z"/>
	</g>
</g>
<g>
	<path class="st3" d="M84.4,30.6c-1.9,1.9-4.2,2.6-6.8,2.6c-6.6,0-9.2-4.2-9.3-8.8c0-4.3,2.9-9,9.3-9c2.4,0,4.6,0.8,6.5,2.7L81.2,21
		c-1.2-1.2-2.5-1.5-3.6-1.5c-3.3,0-4.5,2.7-4.5,4.9s1.2,4.7,4.5,4.7c1.1,0,2.8-0.5,4-1.7L84.4,30.6z"/>
	<path class="st3" d="M87,15.5c1.2,0,2.5,0.7,2.5,2.2s-1.3,2.2-2.5,2.2c-1.3,0-2.5-0.7-2.5-2.2C84.5,16.3,85.7,15.5,87,15.5z
		 M89.2,32.8V21h-4.5v11.7L89.2,32.8L89.2,32.8z"/>
	<path class="st3" d="M94.9,15.9v6.3c0.8-1.1,1.8-1.5,3.2-1.5c2.4,0,4.7,1.6,4.7,5.6v6.6h-4.4v-6.6c0-1.4-0.7-1.8-1.6-1.8
		s-1.8,0.7-1.9,2.1v6.3h-4.5v-17H94.9z"/>
	<path class="st3" d="M113.1,20.8h4.2v11.9h-4.1l-0.2-1.3c-1,1.2-2.6,1.6-3.9,1.5c-3.5-0.2-5.5-2.7-5.5-6.2s2.3-6.2,5.8-6.2
		c1.7,0,2.9,0.6,3.5,1.5L113.1,20.8z M108,26.8c0,1.7,1.1,2.6,2.4,2.6c1.5,0,2.5-1.2,2.5-2.6c0-1.6-0.9-2.6-2.5-2.6
		C109,24.2,108,25.1,108,26.8z"/>
	<path class="st3" d="M126.8,32.8v-6.6c0-1.5-0.8-2-1.7-2c-1.1,0-2.1,0.7-2.1,2.3v6.3h-4.4v-12h3.9l0.2,1.3c1-1.2,2.5-1.6,3.8-1.6
		c2.5,0,4.7,1.4,4.7,5.6v6.6L126.8,32.8L126.8,32.8z"/>
	<path class="st3" d="M136.2,33.6c0,1.9,1.1,2.3,2.2,2.3c1.2,0,2.2-0.6,2.2-1.7c0-0.9-0.5-1.6-2.1-1.6c-4,0-6.6-2.3-6.6-6
		s2.9-6.1,6.6-6.1c0.8,0,1.7,0.2,2.5,0.5c0.4-0.5,0.9-1.1,1.3-1.6l3.2,2.3l-1.5,1.8c0.9,1,1.2,2.1,1.1,3.2c0,1.5-0.8,3-2.2,4
		c2.2,1.3,2.3,2.9,2.3,3.6c0,3.9-3.4,5.3-6.8,5.3c-4.3,0-6.7-2.2-6.4-5.9L136.2,33.6L136.2,33.6z M136.1,26.6c0,1.4,1,2.3,2.3,2.3
		c1.2,0,2.2-0.7,2.2-2.3c0-1.4-0.9-2.5-2.2-2.5C137.2,24.1,136.1,25,136.1,26.6z"/>
	<path class="st3" d="M148.4,15.5c1.2,0,2.5,0.7,2.5,2.2s-1.3,2.2-2.5,2.2c-1.3,0-2.5-0.7-2.5-2.2C145.9,16.3,147.1,15.5,148.4,15.5
		z M150.6,32.8V21h-4.5v11.7L150.6,32.8L150.6,32.8z"/>
	<path class="st3" d="M156,20.8l0.3,1.3c0.6-1.1,1.7-1.6,2.9-1.6s2.4,0.5,3.1,1.3l-1.8,3.2c-0.7-0.6-1.3-0.7-2-0.7
		c-1.1,0-2.1,0.7-2.1,2.2v6.2H152V20.8H156z"/>
	<path class="st3" d="M190.6,20.8h4.2v11.9h-4.1l-0.2-1.3c-1,1.2-2.6,1.6-3.9,1.5c-3.5-0.2-5.5-2.7-5.5-6.2s2.3-6.2,5.8-6.2
		c1.7,0,2.9,0.6,3.5,1.5L190.6,20.8z M185.5,26.8c0,1.7,1.1,2.6,2.4,2.6c1.5,0,2.5-1.2,2.5-2.6c0-1.6-0.9-2.6-2.5-2.6
		C186.6,24.2,185.5,25.1,185.5,26.8z"/>
	<path class="st3" d="M200.3,15.9v8.5l2.5-3.5h5v0.2l-4.2,5.4l4.9,6.1v0.3h-5l-3.1-4.2v4.2h-4.5v-17H200.3z"/>
	<path class="st3" d="M208.4,32.8v-12h4.4v11.9L208.4,32.8L208.4,32.8z"/>
	<path class="st3" d="M225.3,31c-1.4,1.3-3.1,2-4.9,2c-3.5,0-6.8-1.7-6.8-6.2c0-4.3,3.3-6.3,6.7-6.3c1.7,0,3.4,0.6,4.7,1.9l-2.4,2.6
		c-0.6-0.6-1.3-0.9-2.1-0.9c-1.7,0-2.6,1.2-2.6,2.7c0,1.3,0.9,2.5,2.6,2.5c0.8,0,1.6-0.3,2.2-1L225.3,31z"/>
	<path class="st3" d="M225.6,32.8v-12h4.4v11.9L225.6,32.8L225.6,32.8z"/>
	<path class="st3" d="M181.4,30.6l-2.8-3.1c-1.2,1.2-2.9,1.7-4,1.7c-3.3,0-4.5-2.5-4.5-4.7s1.3-4.9,4.5-4.9c1.1,0,2.4,0.3,3.6,1.5
		l2.9-2.9c-1.9-1.9-4.1-2.7-6.5-2.7c-6.4,0-9.3,4.6-9.3,9c0,3.9,1.8,7.4,6.3,8.4v2.8h4.6v-2.6C178.3,32.8,180,32,181.4,30.6z"/>
</g>
</svg>
