<?xml version="1.0" encoding="utf-8"?>
<!-- Generator: Adobe Illustrator 19.2.1, SVG Export Plug-In . SVG Version: 6.00 Build 0)  -->
<svg version="1.1" id="Layer_1" xmlns="http://www.w3.org/2000/svg" xmlns:xlink="http://www.w3.org/1999/xlink" x="0px" y="0px"
	 viewBox="0 0 230 70" style="enable-background:new 0 0 230 70;" xml:space="preserve">
<style type="text/css">
	.st0{fill:#8B467B;}
	.st1{fill:#67C9EC;}
	.st2{fill:#FBB03B;}
	.st3{fill:#00719C;}
</style>
<g>
	<path class="st0" d="M17,4c0,0-2.1,12.1,6.7,13.5c0,0-3.7-8.5-3.7-8.5l5.3,7.5C25.3,16.6,29.1,9.5,17,4z"/>
</g>
<g>
	<path class="st1" d="M8,9.2c0,0,0.3,5.5,4.3,5.3c0,0-2.5-3.3-2.5-3.3l3.1,2.8C12.9,13.9,13.9,10.4,8,9.2z"/>
</g>
<g>
	<path class="st2" d="M28.8-0.1c0,0-3.1,4.6,0.3,6.8c0,0,0-4.2,0-4.2l0.8,4.1C29.9,6.5,32.7,4.3,28.8-0.1z"/>
</g>
<g>
	<path class="st0" d="M51,8.1c0,0-5.5,0.6-5,4.6c0,0,3.2-2.7,3.2-2.7l-2.6,3.2C46.7,13.3,50.2,14,51,8.1z"/>
</g>
<g>
	<path class="st0" d="M0,30.8c0,0,4.1,3.7,6.8,0.7c0,0-4.1-0.6-4.1-0.6l4.1-0.2C6.8,30.6,5,27.5,0,30.8z"/>
</g>
<g>
	<path class="st2" d="M9.4,52.8c0,0,5.4-1.1,4.6-5c0,0-3,2.9-3,2.9l2.3-3.4C13.4,47.3,9.8,46.9,9.4,52.8z"/>
</g>
<g>
	<path class="st2" d="M51.8,51c0,0-0.5-5.1-4.2-4.7c0,0,2.4,3,2.4,3l-3-2.5C47.1,46.8,46.3,50.1,51.8,51z"/>
</g>
<g>
	<path class="st1" d="M60.3,29.5c0,0-4.1-3.4-6.5-0.4c0,0,4,0.5,4,0.5l-4,0.3C53.7,29.8,55.6,32.8,60.3,29.5z"/>
</g>
<g>
	<path class="st2" d="M2.8,21c0,0,6.6,9.6,13.5,4.7c0,0-8.1-3.3-8.1-3.3l8.6,1.6C16.8,24,14.6,16.7,2.8,21z"/>
</g>
<g>
	<path class="st1" d="M4.6,42.5c0,0,10.8,2.2,12.3-5.7c0,0-7.7,3.1-7.7,3.1l6.9-4.5C16.1,35.4,9.8,31.9,4.6,42.5z"/>
</g>
<g>
	<path class="st2" d="M55.9,17.6c0,0-10.7-2.5-12.4,5.3c0,0,7.8-2.9,7.8-2.9l-7,4.3C44.2,24.4,50.3,28.2,55.9,17.6z"/>
</g>
<g>
	<path class="st1" d="M39.9,2.8c0,0-9.7,6.3-5,13.3c0,0,3.5-8,3.5-8l-1.8,8.5C36.6,16.6,43.9,14.6,39.9,2.8z"/>
</g>
<g>
	<path class="st0" d="M57.4,39.6c0,0-6.1-9.8-13.2-5.3c0,0,7.9,3.7,7.9,3.7l-8.4-2C43.7,36,45.4,43.3,57.4,39.6z"/>
</g>
<g>
	<path class="st1" d="M42.5,55.8c0,0,2.2-10.9-5.7-12.4c0,0,3.1,7.8,3.1,7.8l-4.6-7C35.3,44.2,31.7,50.5,42.5,55.8z"/>
</g>
<g>
	<path class="st0" d="M5.9,70.1c4.5-3.9,11.2-6.8,18.9-7.9c-0.4-1-0.9-2.1-1.3-3C15.2,61.1,8.8,65.4,5.9,70.1z"/>
</g>
<g>
	<path class="st0" d="M32.9,58.4c0.7,1.1,1.6,2.4,2.3,3.4c9,0.4,15.5,2.3,20.1,6C51.8,62.5,44.5,58.6,32.9,58.4z"/>
</g>
<g>
	<path class="st0" d="M39.3,28.4c-7.7,7.1-12,8.3-13.7,8.5c0.2-5.8,1.7-12.4,5.4-19.7c0,0-17.1,19.8-4.6,44.8c1-0.1,2.2-0.2,3.5-0.2
		c-1.4-3.2-1.5-5.4-1.5-5.4c0.9,1.7,2.2,3.6,3.3,5.3c0.6,0,1.3,0,2,0c-2.3-2.8-7.2-9.9-8-20.4C27.9,40.4,33.9,37,39.3,28.4z
		 M31.7,36.3c-2.3,1.9-3,3.1-6.1,4.4c0-0.7-0.1-1.5-0.1-2.3C26.6,38.3,29.6,37.7,31.7,36.3z"/>
</g>
<g>
	<g>
		<g>
			<path class="st3" d="M84.4,41.9c-1.9,1.9-4.2,2.6-6.8,2.6c-6.6,0-9.2-4.2-9.3-8.8c0-4.3,2.9-9,9.3-9c2.4,0,4.6,0.8,6.5,2.7
				l-2.9,2.9c-1.2-1.2-2.5-1.5-3.6-1.5c-3.3,0-4.5,2.7-4.5,4.9c0,2.2,1.2,4.7,4.5,4.7c1.1,0,2.8-0.5,4-1.7L84.4,41.9z"/>
		</g>
		<g>
			<path class="st3" d="M87,26.8c1.2,0,2.5,0.7,2.5,2.2c0,1.5-1.3,2.2-2.5,2.2c-1.3,0-2.5-0.7-2.5-2.2C84.5,27.6,85.7,26.8,87,26.8z
				 M89.2,44.1V32.3h-4.5v11.7H89.2z"/>
		</g>
		<g>
			<path class="st3" d="M94.9,27.2v6.3c0.8-1.1,1.8-1.5,3.2-1.5c2.4,0,4.7,1.6,4.7,5.6v6.6h-4.4v-6.6c0-1.4-0.7-1.8-1.6-1.8
				c-0.9,0-1.8,0.7-1.9,2.1v6.3h-4.5V27.2H94.9z"/>
		</g>
		<g>
			<path class="st3" d="M113.1,32.1h4.2v11.9h-4.1l-0.2-1.3c-1,1.2-2.6,1.6-3.9,1.5c-3.5-0.2-5.5-2.7-5.5-6.2c0-3.5,2.3-6.2,5.8-6.2
				c1.7,0,2.9,0.6,3.5,1.5L113.1,32.1z M108,38.1c0,1.7,1.1,2.6,2.4,2.6c1.5,0,2.5-1.2,2.5-2.6c0-1.6-0.9-2.6-2.5-2.6
				C109,35.5,108,36.4,108,38.1z"/>
		</g>
		<g>
			<path class="st3" d="M126.8,44.1v-6.6c0-1.5-0.8-2-1.7-2c-1.1,0-2.1,0.7-2.1,2.3v6.3h-4.4V32.1h3.9l0.2,1.3
				c1-1.2,2.5-1.6,3.8-1.6c2.5,0,4.7,1.4,4.7,5.6v6.6H126.8z"/>
		</g>
		<g>
			<path class="st3" d="M136.2,44.9c0,1.9,1.1,2.3,2.2,2.3c1.2,0,2.2-0.6,2.2-1.7c0-0.9-0.5-1.6-2.1-1.6c-4,0-6.6-2.3-6.6-6
				c0-3.7,2.9-6.1,6.6-6.1c0.8,0,1.7,0.2,2.5,0.5c0.4-0.5,0.9-1.1,1.3-1.6l3.2,2.3l-1.5,1.8c0.9,1,1.2,2.1,1.1,3.2
				c0,1.5-0.8,3-2.2,4c2.2,1.3,2.3,2.9,2.3,3.6c0,3.9-3.4,5.3-6.8,5.3c-4.3,0-6.7-2.2-6.4-5.9H136.2z M136.1,37.9
				c0,1.4,1,2.3,2.3,2.3c1.2,0,2.2-0.7,2.2-2.3c0-1.4-0.9-2.5-2.2-2.5C137.2,35.4,136.1,36.3,136.1,37.9z"/>
		</g>
		<g>
			<path class="st3" d="M148.4,26.8c1.2,0,2.5,0.7,2.5,2.2c0,1.5-1.3,2.2-2.5,2.2c-1.3,0-2.5-0.7-2.5-2.2
				C145.9,27.6,147.1,26.8,148.4,26.8z M150.6,44.1V32.3h-4.5v11.7H150.6z"/>
		</g>
		<g>
			<path class="st3" d="M156,32.1l0.3,1.3c0.6-1.1,1.7-1.6,2.9-1.6c1.2,0,2.4,0.5,3.1,1.3l-1.8,3.2c-0.7-0.6-1.3-0.7-2-0.7
				c-1.1,0-2.1,0.7-2.1,2.2v6.2H152V32.1H156z"/>
		</g>
		<g>
			<path class="st3" d="M190.6,32.1h4.2v11.9h-4.1l-0.2-1.3c-1,1.2-2.6,1.6-3.9,1.5c-3.5-0.2-5.5-2.7-5.5-6.2c0-3.5,2.3-6.2,5.8-6.2
				c1.7,0,2.9,0.6,3.5,1.5L190.6,32.1z M185.5,38.1c0,1.7,1.1,2.6,2.4,2.6c1.5,0,2.5-1.2,2.5-2.6c0-1.6-0.9-2.6-2.5-2.6
				C186.6,35.5,185.5,36.4,185.5,38.1z"/>
		</g>
		<g>
			<path class="st3" d="M200.3,27.2v8.5l2.5-3.5h5v0.2l-4.2,5.4l4.9,6.1v0.3h-5l-3.1-4.2v4.2h-4.5V27.2H200.3z"/>
		</g>
		<g>
			<path class="st3" d="M208.4,44.1V32.1h4.4v11.9H208.4z"/>
		</g>
		<g>
			<path class="st3" d="M225.3,42.3c-1.4,1.3-3.1,2-4.9,2c-3.5,0-6.8-1.7-6.8-6.2c0-4.3,3.3-6.3,6.7-6.3c1.7,0,3.4,0.6,4.7,1.9
				l-2.4,2.6c-0.6-0.6-1.3-0.9-2.1-0.9c-1.7,0-2.6,1.2-2.6,2.7c0,1.3,0.9,2.5,2.6,2.5c0.8,0,1.6-0.3,2.2-1L225.3,42.3z"/>
		</g>
		<g>
			<path class="st3" d="M225.6,44.1V32.1h4.4v11.9H225.6z"/>
		</g>
		<g>
			<path class="st3" d="M181.4,41.9l-2.8-3.1c-1.2,1.2-2.9,1.7-4,1.7c-3.3,0-4.5-2.5-4.5-4.7c0-2.2,1.3-4.9,4.5-4.9
				c1.1,0,2.4,0.3,3.6,1.5l2.9-2.9c-1.9-1.9-4.1-2.7-6.5-2.7c-6.4,0-9.3,4.6-9.3,9c0,3.9,1.8,7.4,6.3,8.4V47h4.6v-2.6
				C178.3,44.1,180,43.3,181.4,41.9z"/>
		</g>
	</g>
</g>
<g>
	<path class="st3" d="M81.3,20.5h-8.6l-1.5,3.3h-2.7L75.6,8h2.8l7.1,15.8h-2.7L81.3,20.5z M77,10.7l-3.3,7.5h6.7L77,10.7z"/>
	<path class="st3" d="M92.6,15.4c-0.9-0.8-1.8-1-2.9-1c-1.4,0-2.4,0.5-2.4,1.3c0,0.9,1,1.3,2.4,1.4c2.1,0.2,4.7,0.6,4.7,3.5
		c0,2.1-1.9,3.5-4.7,3.5c-1.8,0-3.6-0.4-5.1-2.1l1.2-1.6c1,1.2,2.6,1.6,3.9,1.6c1.1,0,2.4-0.4,2.4-1.4c0-1-0.9-1.4-2.6-1.5
		c-2.1-0.2-4.5-0.9-4.5-3.3c0-2.5,2.6-3.4,4.6-3.4c1.7,0,3.1,0.4,4.3,1.5L92.6,15.4z"/>
	<path class="st3" d="M102.2,15.4c-0.9-0.8-1.8-1-2.9-1c-1.4,0-2.4,0.5-2.4,1.3c0,0.9,1,1.3,2.4,1.4c2.1,0.2,4.7,0.6,4.7,3.5
		c0,2.1-1.9,3.5-4.7,3.5c-1.8,0-3.6-0.4-5.1-2.1l1.2-1.6c1,1.2,2.6,1.6,3.9,1.6c1.1,0,2.4-0.4,2.4-1.4c0-1-0.9-1.4-2.6-1.5
		c-2.1-0.2-4.5-0.9-4.5-3.3c0-2.5,2.6-3.4,4.6-3.4c1.7,0,3.1,0.4,4.3,1.5L102.2,15.4z"/>
	<path class="st3" d="M115.4,18.3c0,3.3-2.3,5.8-5.8,5.8c-3.5,0-5.7-2.5-5.7-5.8c0-3.3,2.3-5.8,5.7-5.8
		C113.1,12.5,115.4,15,115.4,18.3z M106.2,18.3c0,2,1.3,3.6,3.4,3.6c2.1,0,3.4-1.6,3.4-3.6c0-2-1.4-3.7-3.4-3.7
		C107.5,14.6,106.2,16.3,106.2,18.3z"/>
	<path class="st3" d="M125.6,22.4c-1.2,1.2-2.6,1.7-4.2,1.7c-3.2,0-5.9-2-5.9-5.9s2.6-5.9,5.9-5.9c1.5,0,2.8,0.5,4,1.6l-1.5,1.6
		c-0.7-0.7-1.6-1-2.5-1c-2,0-3.6,1.4-3.6,3.6c0,2.4,1.6,3.6,3.5,3.6c0.9,0,1.9-0.3,2.6-1L125.6,22.4z"/>
	<path class="st3" d="M128.6,22.6c0,1.9-2.9,1.9-2.9,0C125.7,20.7,128.6,20.7,128.6,22.6z"/>
	<path class="st3" d="M136.2,8c5.4,0,7.9,3.9,7.9,7.8c0.1,4-2.4,8-7.9,8c-1.9,0-4.1,0-6,0V8H136.2z M132.7,21.4h3.5
		c3.9,0,5.5-2.8,5.4-5.6c-0.1-2.7-1.7-5.3-5.4-5.3h-3.5V21.4z"/>
	<path class="st3" d="M147.1,12.7l0.2,1.5c0.8-1.4,2.1-1.7,3.3-1.7c1.1,0,2.1,0.4,2.8,0.9l-1.1,2c-0.6-0.5-1.1-0.7-2-0.7
		c-1.6,0-3,1-3,3.1v6h-2.3V12.7H147.1z"/>
	<path class="st3" d="M154.5,22.6c0,1.9-2.9,1.9-2.9,0C151.7,20.7,154.5,20.7,154.5,22.6z"/>
</g>
<g>
	<path class="st3" d="M82.6,61.1c-1.6,1.6-3.7,2.4-5.9,2.4c-5.7,0-8.3-4-8.3-8.1c0-4.2,2.7-8.3,8.3-8.3c2.1,0,4.2,0.8,5.8,2.4
		L80.7,51c-1.1-1.1-2.6-1.6-4.1-1.6c-4,0-5.9,3-5.8,5.9c0,2.9,1.7,5.8,5.8,5.8c1.5,0,3.1-0.6,4.2-1.7L82.6,61.1z"/>
	<path class="st3" d="M85.5,47.3v15.8h-2.3V47.3H85.5z"/>
	<path class="st3" d="M89.7,48.7c0,1.9-2.9,1.9-2.9,0C86.8,46.8,89.7,46.8,89.7,48.7z M87,51.9v11.2h2.3V51.9H87z"/>
	<path class="st3" d="M99.3,63.1v-6c0-1.9-1.1-3.2-3-3.2c-1.9,0-3.1,1.5-3.1,3.3v5.8h-2.3V51.9H93l0.1,1.6c1.1-1.2,2.3-1.8,3.8-1.8
		c2.7,0,4.8,1.9,4.8,5.3v6H99.3z"/>
	<path class="st3" d="M105.5,48.7c0,1.9-2.9,1.9-2.9,0C102.6,46.8,105.5,46.8,105.5,48.7z M102.9,51.9v11.2h2.3V51.9H102.9z"/>
	<path class="st3" d="M116.1,61.6c-1.2,1.2-2.6,1.7-4.2,1.7c-3.2,0-5.9-2-5.9-5.9c0-3.8,2.6-5.9,5.9-5.9c1.5,0,2.8,0.5,4,1.6
		l-1.5,1.6c-0.7-0.7-1.6-1-2.5-1c-2,0-3.6,1.4-3.6,3.6c0,2.4,1.6,3.6,3.5,3.6c0.9,0,1.9-0.3,2.6-1L116.1,61.6z"/>
</g>
</svg>
